<svg xmlns="http://www.w3.org/2000/svg" version="1.1" xmlns:xlink="http://www.w3.org/1999/xlink" xmlns:svgjs="http://svgjs.com/svgjs" width="512" height="512" x="0" y="0" viewBox="0 0 48 48" style="enable-background:new 0 0 512 512" xml:space="preserve" class=""><g><path d="M41.211 37.288a4.112 4.112 0 1 1 4.109-4.112 4.114 4.114 0 0 1-4.109 4.112zm0-6.724a2.612 2.612 0 1 0 2.609 2.612 2.613 2.613 0 0 0-2.609-2.612zM19.542 37.288a4.112 4.112 0 1 1 4.108-4.112 4.115 4.115 0 0 1-4.108 4.112zm0-6.724a2.612 2.612 0 1 0 2.608 2.612 2.614 2.614 0 0 0-2.608-2.612z" fill="#ff1b1b" data-original="#000000" opacity="1" class=""></path><path d="M46.621 33.926H44.57a.75.75 0 0 1 0-1.5h1.839v-3.977a3.16 3.16 0 0 0-.4-1.536l-4.06-7.279a.4.4 0 0 0-.349-.205h-5.533v13h1.786a.75.75 0 0 1 0 1.5h-2.536a.75.75 0 0 1-.75-.75v-14.5a.75.75 0 0 1 .75-.75H41.6a1.9 1.9 0 0 1 1.66.974l4.059 7.28a4.662 4.662 0 0 1 .589 2.266v4.19a1.289 1.289 0 0 1-1.287 1.287zM16.183 33.926H8.992a.75.75 0 0 1-.75-.75v-5.768a.75.75 0 0 1 1.5 0v5.018h6.441a.75.75 0 0 1 0 1.5zM8.992 24.747a.75.75 0 0 1-.75-.75v-5.036a.75.75 0 0 1 1.5 0V24a.75.75 0 0 1-.75.747z" fill="#ff1b1b" data-original="#000000" opacity="1" class=""></path><path d="M35.317 33.926H22.9a.75.75 0 0 1 0-1.5h11.667V12.805H9.742v3.089a.75.75 0 0 1-1.5 0v-3.227a1.364 1.364 0 0 1 1.363-1.362h25.1a1.364 1.364 0 0 1 1.362 1.362v20.509a.75.75 0 0 1-.75.75zM11.957 28.158H2.438a.75.75 0 0 1 0-1.5h9.519a.75.75 0 0 1 0 1.5z" fill="#ff1b1b" data-original="#000000" opacity="1" class=""></path><path d="M19.542 24.747H6.259a.75.75 0 0 1 0-1.5h13.283a.75.75 0 0 1 0 1.5zM5.846 20.787H.659a.75.75 0 1 1 0-1.5h5.187a.75.75 0 0 1 0 1.5zM14.163 16.644H5.007a.75.75 0 1 1 0-1.5h9.156a.75.75 0 0 1 0 1.5z" fill="#ff1b1b" data-original="#000000" opacity="1" class=""></path></g></svg>