<svg xmlns="http://www.w3.org/2000/svg" version="1.1" xmlns:xlink="http://www.w3.org/1999/xlink" xmlns:svgjs="http://svgjs.com/svgjs" width="512" height="512" x="0" y="0" viewBox="0 0 512 512" style="enable-background:new 0 0 512 512" xml:space="preserve" class=""><g><path d="M502.66 377c-5.41-20.21-26.42-32.49-47.83-28l-149.22 31.68a36.63 36.63 0 0 0-16-44.18l-86.5-49.95a65.67 65.67 0 0 1-9.74-7.43c-7.6-6.57-17.06-14.74-34.69-16.62-16.75-1.78-38.55 2.15-68 12.34a26.56 26.56 0 0 0-26.2-22.43H34.52A26.55 26.55 0 0 0 8 278.93v147.41a26.55 26.55 0 0 0 26.52 26.52h29.87a26.55 26.55 0 0 0 26.51-26.1c23.86-3.35 54.17 13.95 83.55 30.73 25.32 14.46 49.46 28.25 69.63 28.25a37.2 37.2 0 0 0 11.2-1.63l219.52-58.82A39.44 39.44 0 0 0 502.66 377ZM64.39 436.86H34.52A10.53 10.53 0 0 1 24 426.34V278.93a10.53 10.53 0 0 1 10.52-10.52h29.87a10.53 10.53 0 0 1 10.52 10.52v147.41a10.53 10.53 0 0 1-10.52 10.52Zm406.27-27L251 468.7l-.37.11c-15.43 4.93-42.27-10.39-68.22-25.21-30.93-17.68-62.81-35.86-91.47-33V291.69c65.35-23.44 78.87-11.77 92-.47a78.89 78.89 0 0 0 12.2 9.19l86.5 49.94A20.54 20.54 0 1 1 261 385.92l-72.22-41.69a8 8 0 0 0-8 13.85l72.22 41.7a36.35 36.35 0 0 0 18.21 4.89 36.83 36.83 0 0 0 16.52-3.94 8.6 8.6 0 0 0 1.12-.15l169.26-35.84c13.31-2.82 25.8 4.25 29.07 16.44a23.43 23.43 0 0 1-16.52 28.65ZM62.79 297.3A13.34 13.34 0 1 1 49.46 284a13.36 13.36 0 0 1 13.33 13.3Zm157.94-87.89h13.54a123.23 123.23 0 0 0 11.46 27.64l-9.57 9.58a14.51 14.51 0 0 0-1.35 19.12 150.7 150.7 0 0 0 29.69 29.68 14.49 14.49 0 0 0 19.12-1.34l9.58-9.57A123.81 123.81 0 0 0 320.83 296v13.54A14.5 14.5 0 0 0 333.41 324a150.59 150.59 0 0 0 42 0A14.5 14.5 0 0 0 388 309.52V296a123.61 123.61 0 0 0 27.64-11.46l9.57 9.57a14.49 14.49 0 0 0 19.12 1.34 150.43 150.43 0 0 0 29.67-29.7 14.51 14.51 0 0 0-1.34-19.12l-9.58-9.58a123.07 123.07 0 0 0 11.46-27.63h13.55a14.49 14.49 0 0 0 14.46-12.58 150.59 150.59 0 0 0 0-42 14.49 14.49 0 0 0-14.46-12.57h-13.56a123.45 123.45 0 0 0-11.47-27.64l9.58-9.57A14.51 14.51 0 0 0 474 86a150.21 150.21 0 0 0-29.69-29.69 14.49 14.49 0 0 0-19.12 1.34l-9.57 9.58A123.65 123.65 0 0 0 388 55.72V42.18a14.5 14.5 0 0 0-12.57-14.47 152.2 152.2 0 0 0-42 0 14.51 14.51 0 0 0-12.57 14.47v13.54a123.57 123.57 0 0 0-27.66 11.47l-9.58-9.58a14.51 14.51 0 0 0-19.12-1.34A150.21 150.21 0 0 0 234.81 86a14.5 14.5 0 0 0 1.35 19.12l9.57 9.57a123 123 0 0 0-11.46 27.64h-13.54a14.5 14.5 0 0 0-14.47 12.57 150.59 150.59 0 0 0 0 42 14.49 14.49 0 0 0 14.47 12.51Zm1.21-51.12h18.56a8 8 0 0 0 7.81-6.26 108 108 0 0 1 14.24-34.34 8 8 0 0 0-1.1-9.94l-13.12-13.13a134 134 0 0 1 24.84-24.84l13.12 13.13a8 8 0 0 0 9.95 1.1 108 108 0 0 1 34.34-14.24 8 8 0 0 0 6.25-7.77V43.39a135.89 135.89 0 0 1 35.13 0V62a8 8 0 0 0 6.26 7.81A107.92 107.92 0 0 1 412.55 84a8 8 0 0 0 9.95-1.1l13.13-13.13a134.26 134.26 0 0 1 24.83 24.84l-13.12 13.13a8 8 0 0 0-1.1 9.94A107.84 107.84 0 0 1 460.48 152a8 8 0 0 0 7.81 6.25h18.56a134.72 134.72 0 0 1 0 35.13h-18.57a8 8 0 0 0-7.8 6.25A108 108 0 0 1 446.24 234a8 8 0 0 0 1.1 9.94l13.13 13.13a134.62 134.62 0 0 1-24.84 24.84l-13.13-13.12a8 8 0 0 0-9.94-1.09 107.93 107.93 0 0 1-34.35 14.24 8 8 0 0 0-6.25 7.8v18.57a135.89 135.89 0 0 1-35.13 0v-18.57a8 8 0 0 0-6.25-7.81 107.43 107.43 0 0 1-34.34-14.24 8 8 0 0 0-9.95 1.1l-13.12 13.13a134 134 0 0 1-24.84-24.84L261.45 244a8 8 0 0 0 1.1-9.94 107.88 107.88 0 0 1-14.24-34.34 8 8 0 0 0-7.81-6.26h-18.56a134.64 134.64 0 0 1 0-35.12ZM354.4 256a80.11 80.11 0 1 0-80.11-80.11A80.2 80.2 0 0 0 354.4 256Zm0-144.22a64.11 64.11 0 1 1-64.11 64.11 64.18 64.18 0 0 1 64.11-64.15Zm-33.27 71.68a8 8 0 1 1 11.32-11.31L345.3 185l30.7-35.23a8 8 0 0 1 12 10.52l-36.3 41.64a8 8 0 0 1-5.76 2.74h-.27a8 8 0 0 1-5.66-2.34Z" fill="#ff1b1b" data-original="#000000" opacity="1" class=""></path></g></svg>